# xmcd
#
# Track frame offsets:
# 150
# 21685
# 50502
# 76223
# 98400
# 103835
# 123416
# 142495
# 170054
# 193210
#
# Disc length: 2889 seconds
#
# Revision: 1
# Processed by: cddbd v1.5.2PL0 Copyright (c) Steve Scherf et al.
# Submitted via: CedeCatalogueitor 2.6.0.6 http://personales.ya.com/cdcatalogueitor
#
DISCID=940b470a
DTITLE=Ursula - Autoayuda Emocional
DYEAR=1900
DGENRE=
TTITLE0=La Fusión De Los Débiles
TTITLE1=Siempre Oculto Algo
TTITLE2=Me Autoengaño
TTITLE3=Lástima No Ser Los Mismos
TTITLE4=Siguiente Capítulo
TTITLE5=Lo Que Pienso Los Domingos
TTITLE6=Lejos De Todo
TTITLE7=Principios Y Finales
TTITLE8=La Muerte De Las Ideas
TTITLE9=Pequeñas Torturas Occidentales
EXTD=
EXTT0=
EXTT1=
EXTT2=
EXTT3=
EXTT4=
EXTT5=
EXTT6=
EXTT7=
EXTT8=
EXTT9=
PLAYORDER=
